<mxfile modified="2023-11-04T20:01:07.431Z" host="app.diagrams.net" agent="Mozilla/5.0 (Macintosh; Intel Mac OS X 10_15_7) AppleWebKit/537.36 (KHTML, like Gecko) Chrome/119.0.0.0 Safari/537.36" etag="Lsg700X13bRnHoFu0G3y" version="22.0.8" type="device">
  <diagram id="Ht1M8jgEwFfnCIfOTk4-" name="Page-1">
    <mxGraphModel dx="1590" dy="887" grid="1" gridSize="10" guides="1" tooltips="1" connect="1" arrows="1" fold="1" page="1" pageScale="1" pageWidth="1169" pageHeight="827" background="none" math="0" shadow="0">
      <root>
        <mxCell id="0" />
        <mxCell id="1" parent="0" />
        <mxCell id="UEzPUAAOIrF-is8g5C7q-132" style="edgeStyle=orthogonalEdgeStyle;rounded=0;orthogonalLoop=1;jettySize=auto;html=1;startArrow=open;startFill=0;endArrow=open;endFill=0;strokeWidth=2;strokeColor=#808080;" parent="1" source="UEzPUAAOIrF-is8g5C7q-115" target="UEzPUAAOIrF-is8g5C7q-119" edge="1">
          <mxGeometry relative="1" as="geometry">
            <Array as="points">
              <mxPoint x="856" y="390" />
              <mxPoint x="856" y="550" />
            </Array>
          </mxGeometry>
        </mxCell>
        <mxCell id="UEzPUAAOIrF-is8g5C7q-134" style="edgeStyle=orthogonalEdgeStyle;rounded=0;orthogonalLoop=1;jettySize=auto;html=1;startArrow=open;startFill=0;endArrow=open;endFill=0;strokeWidth=2;strokeColor=#808080;" parent="1" source="UEzPUAAOIrF-is8g5C7q-115" target="UEzPUAAOIrF-is8g5C7q-123" edge="1">
          <mxGeometry relative="1" as="geometry">
            <Array as="points">
              <mxPoint x="856" y="370" />
              <mxPoint x="856" y="370" />
            </Array>
            <mxPoint x="946.5000000000002" y="420" as="targetPoint" />
          </mxGeometry>
        </mxCell>
        <mxCell id="UEzPUAAOIrF-is8g5C7q-142" style="edgeStyle=orthogonalEdgeStyle;rounded=0;orthogonalLoop=1;jettySize=auto;html=1;startArrow=open;startFill=0;endArrow=open;endFill=0;strokeWidth=2;strokeColor=#808080;" parent="1" source="UEzPUAAOIrF-is8g5C7q-114" target="UEzPUAAOIrF-is8g5C7q-115" edge="1">
          <mxGeometry relative="1" as="geometry">
            <mxPoint x="603.5" y="386.5" as="sourcePoint" />
            <mxPoint x="736.5" y="386.5" as="targetPoint" />
            <Array as="points">
              <mxPoint x="656" y="380" />
              <mxPoint x="656" y="380" />
            </Array>
          </mxGeometry>
        </mxCell>
        <mxCell id="TyTqnkYuwBOKM68ZB-QU-8" style="edgeStyle=orthogonalEdgeStyle;rounded=0;orthogonalLoop=1;jettySize=auto;html=1;" edge="1" parent="1" source="UEzPUAAOIrF-is8g5C7q-109" target="TyTqnkYuwBOKM68ZB-QU-5">
          <mxGeometry relative="1" as="geometry" />
        </mxCell>
        <mxCell id="UEzPUAAOIrF-is8g5C7q-109" value="Front para Adm" style="outlineConnect=0;gradientColor=none;fontColor=#545B64;strokeColor=none;fillColor=#879196;dashed=0;verticalLabelPosition=bottom;verticalAlign=top;align=center;html=1;fontSize=12;fontStyle=0;aspect=fixed;shape=mxgraph.aws4.illustration_desktop;pointerEvents=1;labelBackgroundColor=#ffffff;" parent="1" vertex="1">
          <mxGeometry x="186" y="504.5" width="100" height="91" as="geometry" />
        </mxCell>
        <mxCell id="TyTqnkYuwBOKM68ZB-QU-9" style="edgeStyle=orthogonalEdgeStyle;rounded=0;orthogonalLoop=1;jettySize=auto;html=1;entryX=0;entryY=0.5;entryDx=0;entryDy=0;" edge="1" parent="1" source="UEzPUAAOIrF-is8g5C7q-110" target="TyTqnkYuwBOKM68ZB-QU-3">
          <mxGeometry relative="1" as="geometry" />
        </mxCell>
        <mxCell id="UEzPUAAOIrF-is8g5C7q-110" value="Front para Clientes" style="outlineConnect=0;gradientColor=none;fontColor=#545B64;strokeColor=none;fillColor=#879196;dashed=0;verticalLabelPosition=bottom;verticalAlign=top;align=center;html=1;fontSize=12;fontStyle=0;aspect=fixed;shape=mxgraph.aws4.illustration_notification;pointerEvents=1;labelBackgroundColor=#ffffff;" parent="1" vertex="1">
          <mxGeometry x="186" y="161.5" width="100" height="81" as="geometry" />
        </mxCell>
        <mxCell id="UEzPUAAOIrF-is8g5C7q-114" value="Amazon API&lt;br&gt;Gateway&lt;br&gt;" style="outlineConnect=0;fontColor=#232F3E;gradientColor=#945DF2;gradientDirection=north;fillColor=#5A30B5;strokeColor=#ffffff;dashed=0;verticalLabelPosition=bottom;verticalAlign=top;align=center;html=1;fontSize=12;fontStyle=0;aspect=fixed;shape=mxgraph.aws4.resourceIcon;resIcon=mxgraph.aws4.api_gateway;labelBackgroundColor=#ffffff;" parent="1" vertex="1">
          <mxGeometry x="515.5" y="337.5" width="78" height="78" as="geometry" />
        </mxCell>
        <mxCell id="UEzPUAAOIrF-is8g5C7q-115" value="Lambda&lt;br&gt;function" style="outlineConnect=0;fontColor=#232F3E;gradientColor=none;fillColor=#D05C17;strokeColor=none;dashed=0;verticalLabelPosition=bottom;verticalAlign=top;align=center;html=1;fontSize=12;fontStyle=0;aspect=fixed;pointerEvents=1;shape=mxgraph.aws4.lambda_function;labelBackgroundColor=#ffffff;" parent="1" vertex="1">
          <mxGeometry x="726.5" y="337.5" width="78" height="78" as="geometry" />
        </mxCell>
        <mxCell id="UEzPUAAOIrF-is8g5C7q-116" value="Amazon S3" style="outlineConnect=0;fontColor=#232F3E;gradientColor=#60A337;gradientDirection=north;fillColor=#277116;strokeColor=#ffffff;dashed=0;verticalLabelPosition=bottom;verticalAlign=top;align=center;html=1;fontSize=12;fontStyle=0;aspect=fixed;shape=mxgraph.aws4.resourceIcon;resIcon=mxgraph.aws4.s3;labelBackgroundColor=#ffffff;" parent="1" vertex="1">
          <mxGeometry x="546.0000000000002" y="600" width="78" height="78" as="geometry" />
        </mxCell>
        <mxCell id="UEzPUAAOIrF-is8g5C7q-119" value="Amazon&lt;br&gt;DynamoDB&lt;br&gt;" style="outlineConnect=0;fontColor=#232F3E;gradientColor=#4D72F3;gradientDirection=north;fillColor=#3334B9;strokeColor=#ffffff;dashed=0;verticalLabelPosition=bottom;verticalAlign=top;align=center;html=1;fontSize=12;fontStyle=0;aspect=fixed;shape=mxgraph.aws4.resourceIcon;resIcon=mxgraph.aws4.dynamodb;labelBackgroundColor=#ffffff;spacingTop=5;" parent="1" vertex="1">
          <mxGeometry x="906.0000000000002" y="511" width="78" height="78" as="geometry" />
        </mxCell>
        <mxCell id="UEzPUAAOIrF-is8g5C7q-122" value="IAM Roles" style="outlineConnect=0;fontColor=#232F3E;gradientColor=none;fillColor=#C7131F;strokeColor=none;dashed=0;verticalLabelPosition=bottom;verticalAlign=top;align=center;html=1;fontSize=12;fontStyle=0;aspect=fixed;pointerEvents=1;shape=mxgraph.aws4.role;labelBackgroundColor=#ffffff;" parent="1" vertex="1">
          <mxGeometry x="906.0000000000002" y="200" width="78" height="44" as="geometry" />
        </mxCell>
        <mxCell id="UEzPUAAOIrF-is8g5C7q-123" value="Amazon&lt;br&gt;CloudWatch Logs&lt;br&gt;" style="outlineConnect=0;fontColor=#232F3E;gradientColor=none;gradientDirection=north;fillColor=#F34482;strokeColor=none;dashed=0;verticalLabelPosition=bottom;verticalAlign=top;align=center;html=1;fontSize=12;fontStyle=0;aspect=fixed;shape=mxgraph.aws4.cloudwatch;labelBackgroundColor=#ffffff;" parent="1" vertex="1">
          <mxGeometry x="906.0000000000002" y="336" width="78" height="78" as="geometry" />
        </mxCell>
        <mxCell id="TyTqnkYuwBOKM68ZB-QU-7" style="edgeStyle=orthogonalEdgeStyle;rounded=0;orthogonalLoop=1;jettySize=auto;html=1;strokeColor=#7f7f7f;" edge="1" parent="1" source="TyTqnkYuwBOKM68ZB-QU-3" target="UEzPUAAOIrF-is8g5C7q-114">
          <mxGeometry relative="1" as="geometry">
            <Array as="points">
              <mxPoint x="417" y="370" />
            </Array>
          </mxGeometry>
        </mxCell>
        <mxCell id="TyTqnkYuwBOKM68ZB-QU-16" style="edgeStyle=orthogonalEdgeStyle;rounded=0;orthogonalLoop=1;jettySize=auto;html=1;startArrow=none;startFill=0;strokeColor=#7f7f7f;" edge="1" parent="1" source="TyTqnkYuwBOKM68ZB-QU-3" target="UEzPUAAOIrF-is8g5C7q-116">
          <mxGeometry relative="1" as="geometry">
            <mxPoint x="700" y="620" as="targetPoint" />
            <Array as="points">
              <mxPoint x="417" y="130" />
              <mxPoint x="1120" y="130" />
              <mxPoint x="1120" y="670" />
            </Array>
          </mxGeometry>
        </mxCell>
        <mxCell id="TyTqnkYuwBOKM68ZB-QU-3" value="" style="shape=image;html=1;verticalAlign=top;verticalLabelPosition=bottom;labelBackgroundColor=#ffffff;imageAspect=0;aspect=fixed;image=https://cdn2.iconfinder.com/data/icons/boxicons-logos/24/bxl-netlify-128.png;imageBackground=#009999;imageBorder=default;" vertex="1" parent="1">
          <mxGeometry x="376" y="200" width="82.5" height="82.5" as="geometry" />
        </mxCell>
        <mxCell id="TyTqnkYuwBOKM68ZB-QU-6" style="edgeStyle=orthogonalEdgeStyle;rounded=0;orthogonalLoop=1;jettySize=auto;html=1;strokeColor=#7f7f7f;" edge="1" parent="1" source="TyTqnkYuwBOKM68ZB-QU-5" target="UEzPUAAOIrF-is8g5C7q-114">
          <mxGeometry relative="1" as="geometry">
            <Array as="points">
              <mxPoint x="417" y="390" />
            </Array>
          </mxGeometry>
        </mxCell>
        <mxCell id="TyTqnkYuwBOKM68ZB-QU-12" style="edgeStyle=orthogonalEdgeStyle;rounded=0;orthogonalLoop=1;jettySize=auto;html=1;startArrow=classic;startFill=1;strokeColor=#575757;" edge="1" parent="1" source="TyTqnkYuwBOKM68ZB-QU-5" target="UEzPUAAOIrF-is8g5C7q-116">
          <mxGeometry relative="1" as="geometry">
            <Array as="points">
              <mxPoint x="417" y="640" />
            </Array>
          </mxGeometry>
        </mxCell>
        <mxCell id="TyTqnkYuwBOKM68ZB-QU-5" value="" style="shape=image;html=1;verticalAlign=top;verticalLabelPosition=bottom;labelBackgroundColor=#ffffff;imageAspect=0;aspect=fixed;image=https://cdn2.iconfinder.com/data/icons/boxicons-logos/24/bxl-netlify-128.png;imageBackground=#009999;imageBorder=default;" vertex="1" parent="1">
          <mxGeometry x="376" y="460" width="82.5" height="82.5" as="geometry" />
        </mxCell>
        <mxCell id="TyTqnkYuwBOKM68ZB-QU-15" style="edgeStyle=orthogonalEdgeStyle;rounded=0;orthogonalLoop=1;jettySize=auto;html=1;startArrow=open;startFill=0;endArrow=open;endFill=0;strokeWidth=2;strokeColor=#808080;" edge="1" parent="1" source="UEzPUAAOIrF-is8g5C7q-115" target="UEzPUAAOIrF-is8g5C7q-122">
          <mxGeometry relative="1" as="geometry">
            <Array as="points">
              <mxPoint x="856" y="350" />
              <mxPoint x="856" y="230" />
            </Array>
            <mxPoint x="776" y="290" as="sourcePoint" />
            <mxPoint x="986" y="280" as="targetPoint" />
          </mxGeometry>
        </mxCell>
      </root>
    </mxGraphModel>
  </diagram>
</mxfile>
